HIERARCHY
ROOT Hips
{
	OFFSET -0.001795 -0.223333 0.028219
	CHANNELS 6 Xposition Yposition Zposition Zrotation Yrotation Xrotation 
	JOINT LeftUpLeg
	{
		OFFSET 0.069520 -0.091406 -0.006815
		CHANNELS 3 Zrotation Yrotation Xrotation
		JOINT LeftLeg
		{
			OFFSET 0.034277 -0.375199 -0.004496
			CHANNELS 3 Zrotation Yrotation Xrotation
			JOINT LeftFoot
			{
				OFFSET -0.013596 -0.397961 -0.043693
				CHANNELS 3 Zrotation Yrotation Xrotation
				JOINT LeftToe
				{
					OFFSET 0.026358 -0.055791 0.119288
					CHANNELS 3 Zrotation Yrotation Xrotation
					End Site
					{
						OFFSET 0.000000 0.000000 0.000000
					}
				}
			}
		}
	}
	JOINT RightUpLeg
	{
		OFFSET -0.067670 -0.090522 -0.004320
		CHANNELS 3 Zrotation Yrotation Xrotation
		JOINT RightLeg
		{
			OFFSET -0.038290 -0.382569 -0.008850
			CHANNELS 3 Zrotation Yrotation Xrotation
			JOINT RightFoot
			{
				OFFSET 0.015774 -0.398415 -0.042312
				CHANNELS 3 Zrotation Yrotation Xrotation
				JOINT RightToe
				{
					OFFSET -0.025372 -0.048144 0.123348
					CHANNELS 3 Zrotation Yrotation Xrotation
					End Site
					{
						OFFSET 0.000000 0.000000 0.000000
					}
				}
			}
		}
	}
	JOINT Spine
	{
		OFFSET -0.002533 0.108963 -0.026696
		CHANNELS 3 Zrotation Yrotation Xrotation
		JOINT Spine1
		{
			OFFSET 0.005487 0.135180 0.001092
			CHANNELS 3 Zrotation Yrotation Xrotation
			JOINT Spine2
			{
				OFFSET 0.001457 0.052922 0.025425
				CHANNELS 3 Zrotation Yrotation Xrotation
				JOINT Neck
				{
					OFFSET -0.002778 0.213870 -0.042857
					CHANNELS 3 Zrotation Yrotation Xrotation
					JOINT Head
					{
						OFFSET 0.005152 0.064970 0.051349
						CHANNELS 3 Zrotation Yrotation Xrotation
						End Site
						{
							OFFSET 0.000000 0.000000 0.000000
						}
					}
				}
				JOINT LeftShoulder
				{
					OFFSET 0.078845 0.121749 -0.034090
					CHANNELS 3 Zrotation Yrotation Xrotation
					JOINT LeftArm
					{
						OFFSET 0.090977 0.030469 -0.008868
						CHANNELS 3 Zrotation Yrotation Xrotation
						JOINT LeftForeArm
						{
							OFFSET 0.259612 -0.012772 -0.027456
							CHANNELS 3 Zrotation Yrotation Xrotation
							JOINT LeftHand
							{
								OFFSET 0.249234 0.008986 -0.001171
								CHANNELS 3 Zrotation Yrotation Xrotation
								End Site
								{
									OFFSET 0.000000 0.000000 0.000000
								}
							}
						}
					}
				}
				JOINT RightShoulder
				{
					OFFSET -0.081759 0.118833 -0.038615
					CHANNELS 3 Zrotation Yrotation Xrotation
					JOINT RightArm
					{
						OFFSET -0.096012 0.032551 -0.009143
						CHANNELS 3 Zrotation Yrotation Xrotation
						JOINT RightForeArm
						{
							OFFSET -0.253742 -0.013329 -0.021401
							CHANNELS 3 Zrotation Yrotation Xrotation
							JOINT RightHand
							{
								OFFSET -0.255298 0.007772 -0.005559
								CHANNELS 3 Zrotation Yrotation Xrotation
								End Site
								{
									OFFSET 0.000000 0.000000 0.000000
								}
							}
						}
					}
				}
			}
		}
	}
}
MOTION
Frames: 13
Frame Time: 0.050000
0.030388 0.949375 -2.695922 -1.280633 8.031021 -6.525839 -0.177333 1.226414 17.347490 -0.526246 -0.162739 5.839463 0.448617 0.796190 -0.264201 0.000000 0.000000 0.000000 -0.229377 1.755778 -20.564711 2.500014 -0.265267 5.367572 -6.421744 -15.992169 21.220400 0.000000 0.000000 0.000000 -4.741939 -0.252023 15.911960 7.013494 -0.894860 -26.254277 -1.501009 -4.031104 30.915714 0.629761 2.007902 -39.240642 0.000000 0.000000 0.000000 -25.779947 4.543240 -4.516721 -48.461228 -14.304170 -2.829966 -11.823479 -37.860695 6.319731 0.000000 0.000000 0.000000 19.458069 -0.707396 -1.048910 58.442122 5.154943 -6.332619 4.681353 31.718445 3.103726 0.000000 0.000000 0.000000 
0.030865 0.957362 -2.747799 -1.425953 6.995401 -6.850228 -1.357106 1.295888 15.073334 -0.261389 -0.131421 4.240515 0.619470 1.481936 0.353547 0.000000 0.000000 0.000000 -0.480931 1.785766 -21.111335 3.356073 -0.465920 14.107874 -7.297534 -17.521815 18.584151 0.000000 0.000000 0.000000 -4.918320 -0.216917 16.213452 7.250120 -0.984541 -25.971132 -1.550918 -2.719752 31.751125 -0.446152 2.592077 -39.203197 0.000000 0.000000 0.000000 -25.377875 4.919345 -4.863456 -48.247052 -13.706589 -3.088179 -12.375399 -37.360519 6.368668 0.000000 0.000000 0.000000 18.855697 0.039916 -0.416302 58.960298 6.318640 -5.888831 5.044241 31.813881 3.277182 0.000000 0.000000 0.000000 
0.029903 0.966430 -2.795450 -1.693422 7.258804 -7.284168 -1.109788 1.089994 12.925392 -0.962470 -0.024260 3.848319 0.720773 2.802415 2.580500 0.000000 0.000000 0.000000 -1.083733 1.673577 -21.345772 4.515984 -1.200038 26.630062 -6.987734 -17.067153 16.104176 0.000000 0.000000 0.000000 -4.635851 -0.272781 16.445881 6.468928 -0.835315 -25.399928 -0.964257 -2.965512 31.205409 -0.680936 2.619537 -37.266310 0.000000 0.000000 0.000000 -26.960491 5.271090 -5.359850 -47.394438 -11.683049 -3.773187 -11.168566 -36.585127 5.780690 0.000000 0.000000 0.000000 18.322006 0.513756 -0.167960 59.266948 5.938415 -6.040676 5.708413 32.860054 3.581167 0.000000 0.000000 0.000000 
0.027635 0.972794 -2.840533 -1.526627 7.437994 -7.571729 -1.114717 0.948269 11.099639 -1.373731 0.064573 2.628599 0.396696 3.124077 4.550298 0.000000 0.000000 0.000000 -1.829019 1.348024 -18.476385 5.440769 -2.186949 36.737850 -6.260666 -15.972432 15.425063 0.000000 0.000000 0.000000 -5.033711 -0.220750 15.832438 6.994297 -0.971125 -25.389794 -1.492159 -1.481582 31.814984 -0.297263 2.688233 -37.058884 0.000000 0.000000 0.000000 -26.254845 6.343578 -6.450903 -48.051277 -9.983350 -4.334802 -11.529532 -35.110330 5.505069 0.000000 0.000000 0.000000 18.391699 -0.547489 -0.346846 58.946481 6.488148 -5.818103 6.845991 32.658638 4.022092 0.000000 0.000000 0.000000 
0.024145 0.973413 -2.884211 -1.261937 7.904678 -7.835601 -1.330046 0.771748 8.713972 -1.711514 0.087155 3.199652 -0.343263 2.346607 5.739421 0.000000 0.000000 0.000000 -1.559911 1.075995 -13.828849 5.381399 -2.857285 44.439321 -5.284023 -14.351569 14.394839 0.000000 0.000000 0.000000 -5.427810 -0.191368 15.881134 5.929780 -0.685397 -25.618291 -0.632057 -1.816788 32.180325 -0.356692 2.667762 -35.999111 0.000000 0.000000 0.000000 -25.949210 7.268654 -6.950002 -48.362772 -8.211745 -5.069794 -11.883265 -33.425114 5.333835 0.000000 0.000000 0.000000 17.136081 -0.205477 -0.130846 59.332392 6.726960 -5.722730 6.952478 33.340686 4.166731 0.000000 0.000000 0.000000 
0.019565 0.971292 -2.927933 -0.547789 7.327311 -7.403487 -1.954162 0.504371 5.087336 -2.275920 0.147613 3.736710 -0.392152 2.931908 7.283794 0.000000 0.000000 0.000000 -1.467662 0.709702 -8.616671 4.845898 -2.788586 49.589244 -4.338735 -12.959277 15.125081 0.000000 0.000000 0.000000 -6.403424 -0.049018 15.113086 5.549836 -0.629070 -25.060517 0.278497 -0.321275 31.746293 -1.025066 3.161129 -35.362068 0.000000 0.000000 0.000000 -25.697797 7.831205 -7.662834 -48.560749 -5.582994 -5.924221 -11.697619 -32.144399 4.935171 0.000000 0.000000 0.000000 16.631972 -0.648205 -0.154426 59.569828 7.230270 -5.367079 6.897481 33.255586 4.205196 0.000000 0.000000 0.000000 
0.014256 0.965091 -2.972784 0.452315 6.558427 -7.041998 -3.378679 0.138366 1.146253 -1.935812 0.096486 4.237952 -0.487514 3.239626 8.532209 0.000000 0.000000 0.000000 -1.943570 0.262404 -3.378195 3.935588 -2.075391 51.787007 -2.930406 -10.619177 15.018174 0.000000 0.000000 0.000000 -7.736405 0.125173 14.863164 5.866886 -0.725271 -24.958472 1.058543 1.213280 32.026980 -1.520236 3.564903 -34.969237 0.000000 0.000000 0.000000 -26.841365 8.668146 -8.818802 -47.800248 -3.757396 -6.397409 -11.193293 -30.837367 4.494727 0.000000 0.000000 0.000000 15.688533 -0.328994 0.211484 59.912588 9.542608 -4.175676 4.367972 33.061031 3.540789 0.000000 0.000000 0.000000 
0.007787 0.957939 -3.020329 1.214411 5.431379 -6.606446 -3.617650 -0.372855 -3.095029 -3.508319 0.317308 4.435459 1.019003 6.075362 9.491004 0.000000 0.000000 0.000000 -2.538373 -0.250668 2.833026 3.333153 -1.171413 48.979610 0.106280 -5.747463 16.639325 0.000000 0.000000 0.000000 -8.032926 0.188504 14.082638 5.650940 -0.760925 -23.805775 1.715353 3.551918 31.903582 -3.036156 4.564632 -33.786301 0.000000 0.000000 0.000000 -27.101118 8.585207 -9.456656 -48.498338 -2.238847 -6.829298 -8.870556 -29.916768 3.599071 0.000000 0.000000 0.000000 16.640366 0.992704 1.238900 57.742312 12.125874 -2.896300 2.130194 32.686058 2.905310 0.000000 0.000000 0.000000 
-0.000299 0.951086 -3.073155 2.394266 4.756529 -5.243743 -4.307450 -1.029045 -7.943135 -3.693617 0.349629 4.530654 1.884829 8.156049 11.815765 0.000000 0.000000 0.000000 -2.596421 -0.718761 8.563619 2.152128 -0.113475 39.227589 1.823375 -2.514230 16.040203 0.000000 0.000000 0.000000 -8.761464 0.292377 12.912862 5.312522 -0.762946 -22.451909 2.191522 5.339449 31.455586 -3.674325 5.078524 -33.918165 0.000000 0.000000 0.000000 -27.986962 7.822920 -9.771589 -48.034713 -1.227278 -6.901185 -6.800676 -29.510763 2.890185 0.000000 0.000000 0.000000 16.313135 3.016171 2.548429 56.149342 14.423425 -1.758398 0.434060 33.523213 2.540849 0.000000 0.000000 0.000000 
-0.009832 0.944557 -3.132375 2.527730 2.546833 -4.198714 -3.430257 -1.500568 -12.139409 -4.038059 0.427137 3.495424 2.717783 10.020229 15.106668 0.000000 0.000000 0.000000 -1.402934 -1.135230 12.483813 0.538341 0.767009 27.940689 0.493985 -3.557329 11.231651 0.000000 0.000000 0.000000 -7.690302 0.272553 13.175021 4.545834 -0.581633 -22.488814 3.074089 7.957537 31.472857 -3.439416 5.176986 -33.504605 0.000000 0.000000 0.000000 -28.759784 6.608304 -9.769937 -49.342168 -0.007847 -7.387396 -4.247679 -29.928680 2.176886 0.000000 0.000000 0.000000 16.734288 3.872373 3.295316 54.594582 18.206948 -0.061689 -2.663399 33.021649 1.662722 0.000000 0.000000 0.000000 
-0.020356 0.940060 -3.194814 2.261295 1.756965 -3.117146 -2.386557 -1.803675 -15.717275 -3.988532 0.427877 2.650888 2.593471 9.934931 15.987132 0.000000 0.000000 0.000000 0.530985 -1.373525 12.683837 -0.728263 0.894620 18.561623 -1.177379 -5.020606 5.209604 0.000000 0.000000 0.000000 -6.966619 0.272534 15.362269 4.745820 -0.591554 -23.255305 3.200705 8.657575 31.554270 -3.791308 5.348293 -35.831263 0.000000 0.000000 0.000000 -29.714772 6.913740 -10.427066 -50.240651 -1.019887 -7.038553 -2.963282 -29.253458 1.792319 0.000000 0.000000 0.000000 15.469138 5.151803 3.855634 54.652894 20.751596 1.321666 -6.155622 33.017480 0.714381 0.000000 0.000000 0.000000 
-0.030606 0.938853 -3.254235 1.015465 1.426503 -1.957569 -0.302763 -1.899054 -19.531124 -3.666843 0.391724 0.916959 2.877657 10.638539 17.514809 0.000000 0.000000 0.000000 2.865850 -1.333572 10.054631 -0.621518 0.671015 13.869812 -3.160960 -8.420821 1.379886 0.000000 0.000000 0.000000 -5.848338 0.156425 16.756370 5.440179 -0.777682 -23.088466 3.082842 8.161610 30.070714 -3.570118 5.125095 -34.985493 0.000000 0.000000 0.000000 -30.398316 7.841595 -11.059493 -50.927540 0.368062 -7.595354 -4.786104 -30.837170 2.414246 0.000000 0.000000 0.000000 14.855739 6.496948 4.293993 54.396059 22.397535 2.331283 -8.198704 33.319770 0.075308 0.000000 0.000000 0.000000 
-0.039343 0.942555 -3.304218 0.512294 1.994335 -0.729679 0.748341 -1.945284 -21.690872 -5.127232 0.555022 1.554591 4.481223 12.583728 14.887839 0.000000 0.000000 0.000000 3.843094 -0.975832 6.592377 -0.052730 0.464690 12.269177 -4.333943 -11.167709 1.030652 0.000000 0.000000 0.000000 -5.313625 0.076170 16.416010 6.108114 -0.943694 -22.842047 2.695497 8.437505 29.987071 -3.248409 5.052073 -36.282628 0.000000 0.000000 0.000000 -29.863478 7.018006 -10.635261 -51.747001 0.113875 -7.590676 -6.358715 -31.422428 2.845776 0.000000 0.000000 0.000000 14.846191 5.622991 3.990756 55.187269 22.724257 2.634979 -8.600637 33.349448 0.055832 0.000000 0.000000 0.000000 
